# xmcd CD database file
#
# Track frame offsets:
#	150
#	16933
#	35880
#	53330
#	68750
#	83802
#	106680
#	123670
#	141240
#	157217
#	176428
#	192701
#	204506
#	221506
#	239656
#	256293
#	273391
#	290701
#
# Disc length: 4155 seconds
#
# Revision: 0
# Processed by: cddbd v1.4PL0 Copyright (c) Steve Scherf et al.
# Submitted via: Feurio! 1.65 - http://www.feurio.com
#
DISCID=14103912
DTITLE=Kenny Rogers - After dark -1999
DYEAR=1999
DGENRE=Country
TTITLE0=Ain't no sunshine
TTITLE1=The kind of fool love makes
TTITLE2=Let it be me
TTITLE3=You don't know me
TTITLE4=How sweet it is (to be loved by you)
TTITLE5=I will remember you
TTITLE6=Buy me a rose
TTITLE7=Three times a lady
TTITLE8=Share your love with me
TTITLE9=I can't make you love me
TTITLE10=I don't need you
TTITLE11=This Masquerade
TTITLE12=Since I fell for you
TTITLE13=Don't fall in love with a dreamer
TTITLE14=Loving arms
TTITLE15=Love don't live here anymore
TTITLE16=You looked so beautiful
TTITLE17=Small dark cloud
EXTD=
EXTT0=
EXTT1=
EXTT2=
EXTT3=
EXTT4=
EXTT5=
EXTT6=
EXTT7=
EXTT8=
EXTT9=
EXTT10=
EXTT11=
EXTT12=
EXTT13=
EXTT14=
EXTT15=
EXTT16=
EXTT17=
PLAYORDER=
